<mxfile host="app.diagrams.net" agent="Mozilla/5.0 (Windows NT 10.0; Win64; x64) AppleWebKit/537.36 (KHTML, like Gecko) Chrome/134.0.0.0 Safari/537.36" version="26.1.3">
  <diagram name="第 1 页" id="RUm38P9eCIduwdvkJvwH">
    <mxGraphModel dx="724" dy="392" grid="1" gridSize="10" guides="1" tooltips="1" connect="1" arrows="1" fold="1" page="1" pageScale="1" pageWidth="827" pageHeight="1169" math="0" shadow="0">
      <root>
        <mxCell id="0" />
        <mxCell id="1" parent="0" />
        <mxCell id="ie2s0pbCXbXEIUWaoTJB-2" value="" style="endArrow=classic;html=1;rounded=0;" parent="1" edge="1">
          <mxGeometry width="50" height="50" relative="1" as="geometry">
            <mxPoint x="40" y="320" as="sourcePoint" />
            <mxPoint x="370" y="320" as="targetPoint" />
          </mxGeometry>
        </mxCell>
        <mxCell id="ie2s0pbCXbXEIUWaoTJB-3" value="" style="endArrow=classic;html=1;rounded=0;" parent="1" edge="1">
          <mxGeometry width="50" height="50" relative="1" as="geometry">
            <mxPoint x="40" y="320" as="sourcePoint" />
            <mxPoint x="40" y="80" as="targetPoint" />
          </mxGeometry>
        </mxCell>
        <mxCell id="ie2s0pbCXbXEIUWaoTJB-4" value="&lt;font style=&quot;font-size: 16px;&quot;&gt;&lt;span style=&quot;font-family: 宋体;&quot;&gt;&lt;font style=&quot;&quot;&gt;用户&lt;/font&gt;&lt;/span&gt;&lt;span style=&quot;font-family: &amp;quot;Times New Roman&amp;quot;; background-color: transparent; color: light-dark(rgb(0, 0, 0), rgb(255, 255, 255));&quot;&gt;1&lt;/span&gt;&lt;/font&gt;" style="rounded=0;whiteSpace=wrap;html=1;fillColor=#dae8fc;strokeColor=#6c8ebf;" parent="1" vertex="1">
          <mxGeometry x="40" y="290" width="290" height="30" as="geometry" />
        </mxCell>
        <mxCell id="ie2s0pbCXbXEIUWaoTJB-5" value="&lt;span style=&quot;font-size: 16px; font-family: 宋体;&quot;&gt;用户&lt;/span&gt;&lt;span style=&quot;font-size: 16px;&quot;&gt;&lt;font face=&quot;Times New Roman&quot;&gt;2&lt;/font&gt;&lt;/span&gt;" style="rounded=0;whiteSpace=wrap;html=1;fillColor=#d5e8d4;strokeColor=#82b366;" parent="1" vertex="1">
          <mxGeometry x="40" y="260" width="290" height="30" as="geometry" />
        </mxCell>
        <mxCell id="ie2s0pbCXbXEIUWaoTJB-6" value="&lt;span style=&quot;font-size: 16px; font-family: 宋体;&quot;&gt;用户&lt;/span&gt;&lt;span style=&quot;font-size: 16px;&quot;&gt;&lt;font face=&quot;Times New Roman&quot;&gt;3&lt;/font&gt;&lt;/span&gt;" style="rounded=0;whiteSpace=wrap;html=1;fillColor=#ffe6cc;strokeColor=#d79b00;" parent="1" vertex="1">
          <mxGeometry x="40" y="230" width="290" height="30" as="geometry" />
        </mxCell>
        <mxCell id="ie2s0pbCXbXEIUWaoTJB-7" value="&lt;span style=&quot;font-size: 16px; font-family: 宋体;&quot;&gt;用户&lt;/span&gt;&lt;span style=&quot;font-size: 16px;&quot;&gt;&lt;font face=&quot;Times New Roman&quot;&gt;N&lt;/font&gt;&lt;/span&gt;" style="rounded=0;whiteSpace=wrap;html=1;fillColor=#e1d5e7;strokeColor=#9673a6;" parent="1" vertex="1">
          <mxGeometry x="40" y="100" width="290" height="30" as="geometry" />
        </mxCell>
        <mxCell id="ie2s0pbCXbXEIUWaoTJB-8" value="&lt;span style=&quot;font-size: 16px; font-family: 宋体;&quot;&gt;用户&lt;/span&gt;&lt;span style=&quot;font-size: 16px;&quot;&gt;&lt;font face=&quot;Times New Roman&quot;&gt;4&lt;/font&gt;&lt;/span&gt;" style="rounded=0;whiteSpace=wrap;html=1;fillColor=#f8cecc;strokeColor=#b85450;" parent="1" vertex="1">
          <mxGeometry x="40" y="200" width="290" height="30" as="geometry" />
        </mxCell>
        <mxCell id="ie2s0pbCXbXEIUWaoTJB-10" value="&lt;font face=&quot;Times New Roman&quot; style=&quot;font-size: 16px;&quot;&gt;.&lt;/font&gt;&lt;div&gt;&lt;font face=&quot;Times New Roman&quot; style=&quot;font-size: 16px;&quot;&gt;.&lt;/font&gt;&lt;/div&gt;&lt;div&gt;&lt;font face=&quot;Times New Roman&quot; style=&quot;font-size: 16px;&quot;&gt;.&lt;/font&gt;&lt;/div&gt;" style="text;html=1;align=center;verticalAlign=middle;whiteSpace=wrap;rounded=0;" parent="1" vertex="1">
          <mxGeometry x="160" y="140" width="40" height="50" as="geometry" />
        </mxCell>
        <mxCell id="ie2s0pbCXbXEIUWaoTJB-11" value="&lt;span style=&quot;font-size: 16px; font-family: 宋体;&quot;&gt;时间&lt;/span&gt;" style="text;html=1;align=center;verticalAlign=middle;whiteSpace=wrap;rounded=0;" parent="1" vertex="1">
          <mxGeometry x="300" y="330" width="60" height="30" as="geometry" />
        </mxCell>
        <mxCell id="ie2s0pbCXbXEIUWaoTJB-12" value="&lt;span style=&quot;font-family: 宋体; font-size: 16px;&quot;&gt;频率&lt;/span&gt;" style="text;html=1;align=center;verticalAlign=middle;whiteSpace=wrap;rounded=0;" parent="1" vertex="1">
          <mxGeometry x="10" y="90" width="20" height="50" as="geometry" />
        </mxCell>
      </root>
    </mxGraphModel>
  </diagram>
</mxfile>
